A Separation (Persian: جدایی نادر از سیمین‎ Jodái-e Náder az Simin, "The Separation of Nader from Simin") is a 2011 Iranian drama film written and directed by Asghar Farhadi, starring Leila Hatami, Peyman Moaadi, Shahab Hosseini, Sareh Bayat, and Sarina Farhadi. It focuses on an Iranian middle-class couple who separate, and the conflicts that arise when the husband hires a lower-class care giver for his elderly father, who suffers from Alzheimer's disease.

A Separation won the Academy Award for Best Foreign Language Film in 2012, becoming the first Iranian film to win the award. It received the Golden Bear for Best Film and the Silver Bears for Best Actress and Best Actor at the 61st Berlin International Film Festival, becoming the first Iranian film to win the Golden Bear. It also won the Golden Globe for Best Foreign Language Film. The film was nominated for the Best Original Screenplay Academy Award, making it the first non-English film in five years to achieve this.

Video
Format : AVC
Format/Info : Advanced Video Codec
Format profile : Main@L3.0
Format settings, CABAC : Yes
Format settings, ReFrames : 3 frames
Codec ID : 7
Duration : 19mn 28s
Bit rate : 618 Kbps
Width : 854 pixels
Height : 480 pixels
Display aspect ratio : 16:9
Frame rate mode : Constant
Frame rate : 25.000 fps
Color space : YUV
Chroma subsampling : 4:2:0
Bit depth : 8 bits
Scan type : Progressive
Bits/(Pixel*Frame) : 0.060
Stream size : 86.1 MiB (82%)

Audio
Format : AAC
Format/Info : Advanced Audio Codec
Format profile : LC
Codec ID : 10
Duration : 19mn 28s
Bit rate : 128 Kbps
Channel(s) : 2 channels
Channel positions : Front: L R
Sampling rate : 44.1 KHz
Compression mode : Lossy
Stream size : 17.9 MiB (17%) 